<svg xmlns="http://www.w3.org/2000/svg" xmlns:xlink="http://www.w3.org/1999/xlink" width="1920" zoomAndPan="magnify" viewBox="0 0 1440 809.999993" height="1080" preserveAspectRatio="xMidYMid meet" version="1.0"><defs><g/><clipPath id="845f5fd1d0"><path d="M 743 430 L 750 430 L 750 445 L 743 445 Z M 743 430 " clip-rule="nonzero"/></clipPath><clipPath id="cd7f8ba6fb"><path d="M 750.628906 374.34375 L 749.339844 444.832031 L 682.601562 443.609375 L 683.890625 373.125 Z M 750.628906 374.34375 " clip-rule="nonzero"/></clipPath><clipPath id="8ba0872869"><path d="M 750.628906 374.34375 L 749.339844 444.832031 L 682.601562 443.609375 L 683.890625 373.125 Z M 750.628906 374.34375 " clip-rule="nonzero"/></clipPath><clipPath id="f954a1e2ab"><path d="M 683 373 L 701 373 L 701 380 L 683 380 Z M 683 373 " clip-rule="nonzero"/></clipPath><clipPath id="3809f2a1b8"><path d="M 750.628906 374.34375 L 749.339844 444.832031 L 682.601562 443.609375 L 683.890625 373.125 Z M 750.628906 374.34375 " clip-rule="nonzero"/></clipPath><clipPath id="624df784c4"><path d="M 750.628906 374.34375 L 749.339844 444.832031 L 682.601562 443.609375 L 683.890625 373.125 Z M 750.628906 374.34375 " clip-rule="nonzero"/></clipPath><clipPath id="4fd9af3e79"><path d="M 684 373 L 750 373 L 750 445 L 684 445 Z M 684 373 " clip-rule="nonzero"/></clipPath><clipPath id="9f544be0a8"><path d="M 750.628906 374.34375 L 749.339844 444.832031 L 682.601562 443.609375 L 683.890625 373.125 Z M 750.628906 374.34375 " clip-rule="nonzero"/></clipPath><clipPath id="49e3b5cfa2"><path d="M 750.628906 374.34375 L 749.339844 444.832031 L 682.601562 443.609375 L 683.890625 373.125 Z M 750.628906 374.34375 " clip-rule="nonzero"/></clipPath><clipPath id="c12cce6adf"><path d="M 687 374 L 749 374 L 749 441 L 687 441 Z M 687 374 " clip-rule="nonzero"/></clipPath><clipPath id="2898fb4867"><path d="M 750.628906 374.34375 L 749.339844 444.832031 L 682.601562 443.609375 L 683.890625 373.125 Z M 750.628906 374.34375 " clip-rule="nonzero"/></clipPath><clipPath id="cbe74282e1"><path d="M 750.628906 374.34375 L 749.339844 444.832031 L 682.601562 443.609375 L 683.890625 373.125 Z M 750.628906 374.34375 " clip-rule="nonzero"/></clipPath><clipPath id="51c62e19c8"><rect x="0" width="53" y="0" height="57"/></clipPath></defs><g clip-path="url(#845f5fd1d0)"><g clip-path="url(#cd7f8ba6fb)"><g clip-path="url(#8ba0872869)"><path fill="#0e766e" d="M 749.59375 430.824219 L 749.34375 444.484375 L 743.582031 444.378906 L 743.832031 430.71875 Z M 749.59375 430.824219 " fill-opacity="1" fill-rule="nonzero"/></g></g></g><g clip-path="url(#f954a1e2ab)"><g clip-path="url(#3809f2a1b8)"><g clip-path="url(#624df784c4)"><path fill="#0e766e" d="M 700.214844 379.195312 L 683.914062 378.898438 L 684.019531 373.132812 L 700.320312 373.429688 Z M 700.214844 379.195312 " fill-opacity="1" fill-rule="nonzero"/></g></g></g><g clip-path="url(#4fd9af3e79)"><g clip-path="url(#9f544be0a8)"><g clip-path="url(#49e3b5cfa2)"><path fill="#f97316" d="M 749.714844 424.300781 L 703.011719 373.480469 L 684.019531 373.132812 L 749.34375 444.484375 Z M 749.714844 424.300781 " fill-opacity="1" fill-rule="nonzero"/></g></g></g><g clip-path="url(#c12cce6adf)"><g clip-path="url(#2898fb4867)"><g clip-path="url(#cbe74282e1)"><path fill="#f97316" d="M 687.871094 374.871094 L 688.574219 374.886719 L 688.566406 375.121094 L 688.425781 375.117188 L 688.757812 375.480469 L 688.582031 375.644531 Z M 688.984375 376.082031 L 689.160156 375.921875 L 689.964844 376.800781 L 689.789062 376.964844 Z M 689.164062 375.136719 L 689.167969 374.902344 L 690.359375 374.921875 L 690.355469 375.160156 Z M 690.191406 377.402344 L 690.367188 377.242188 L 691.171875 378.121094 L 690.996094 378.285156 Z M 690.953125 375.167969 L 690.957031 374.933594 L 692.148438 374.953125 L 692.144531 375.191406 Z M 691.398438 378.722656 L 691.574219 378.5625 L 692.378906 379.441406 L 692.203125 379.601562 Z M 692.601562 380.042969 L 692.78125 379.882812 L 693.585938 380.761719 L 693.40625 380.921875 Z M 692.742188 375.203125 L 692.746094 374.964844 L 693.9375 374.988281 L 693.929688 375.222656 Z M 693.816406 381.359375 L 693.992188 381.195312 L 694.796875 382.078125 L 694.621094 382.238281 Z M 694.527344 375.234375 L 694.535156 375 L 695.722656 375.019531 L 695.71875 375.257812 Z M 695.023438 382.679688 L 695.199219 382.515625 L 696.003906 383.398438 L 695.824219 383.558594 Z M 696.316406 375.269531 L 696.320312 375.03125 L 697.511719 375.054688 L 697.507812 375.289062 Z M 696.226562 384 L 696.40625 383.835938 L 697.210938 384.71875 L 697.03125 384.878906 Z M 697.433594 385.320312 L 697.613281 385.15625 L 698.417969 386.035156 L 698.238281 386.199219 Z M 698.105469 375.300781 L 698.109375 375.0625 L 699.300781 375.085938 L 699.296875 375.320312 Z M 698.640625 386.632812 L 698.820312 386.472656 L 699.625 387.351562 L 699.445312 387.515625 Z M 699.894531 375.332031 L 699.898438 375.097656 L 701.085938 375.117188 L 701.082031 375.355469 Z M 699.847656 387.953125 L 700.027344 387.792969 L 700.832031 388.671875 L 700.652344 388.835938 Z M 701.054688 389.273438 L 701.234375 389.113281 L 702.035156 389.992188 L 701.859375 390.152344 Z M 701.679688 375.367188 L 701.683594 375.128906 L 702.269531 375.140625 L 703.109375 376.054688 L 702.929688 376.21875 L 702.15625 375.378906 L 701.679688 375.371094 Z M 702.265625 390.589844 L 702.445312 390.429688 L 703.25 391.308594 L 703.070312 391.46875 Z M 703.332031 376.652344 L 703.511719 376.492188 L 704.316406 377.367188 L 704.136719 377.53125 Z M 703.472656 391.910156 L 703.652344 391.746094 L 704.457031 392.628906 L 704.277344 392.789062 Z M 704.546875 377.96875 L 704.722656 377.808594 L 705.527344 378.683594 L 705.351562 378.84375 Z M 704.679688 393.230469 L 704.855469 393.066406 L 705.660156 393.949219 L 705.484375 394.109375 Z M 705.757812 379.285156 L 705.933594 379.125 L 706.738281 380 L 706.5625 380.160156 Z M 705.886719 394.550781 L 706.0625 394.386719 L 706.867188 395.269531 L 706.691406 395.429688 Z M 706.96875 380.601562 L 707.144531 380.4375 L 707.949219 381.3125 L 707.773438 381.476562 Z M 707.09375 395.863281 L 707.269531 395.703125 L 708.074219 396.582031 L 707.898438 396.746094 Z M 708.175781 381.917969 L 708.351562 381.753906 L 709.15625 382.628906 L 708.980469 382.792969 Z M 708.300781 397.183594 L 708.476562 397.023438 L 709.28125 397.902344 L 709.105469 398.066406 Z M 709.386719 383.234375 L 709.5625 383.074219 L 710.367188 383.949219 L 710.191406 384.113281 Z M 709.507812 398.503906 L 709.683594 398.34375 L 710.488281 399.222656 L 710.3125 399.386719 Z M 710.597656 384.550781 L 710.773438 384.390625 L 711.578125 385.265625 L 711.402344 385.425781 Z M 710.71875 399.824219 L 710.894531 399.664062 L 711.699219 400.542969 L 711.523438 400.703125 Z M 711.804688 385.867188 L 711.980469 385.707031 L 712.785156 386.582031 L 712.609375 386.742188 Z M 711.925781 401.140625 L 712.101562 400.980469 L 712.90625 401.859375 L 712.730469 402.019531 Z M 713.015625 387.183594 L 713.191406 387.019531 L 713.996094 387.898438 L 713.820312 388.058594 Z M 713.132812 402.460938 L 713.308594 402.296875 L 714.113281 403.179688 L 713.9375 403.339844 Z M 714.226562 388.503906 L 714.402344 388.339844 L 715.207031 389.214844 L 715.03125 389.378906 Z M 714.339844 403.78125 L 714.515625 403.617188 L 715.320312 404.5 L 715.144531 404.660156 Z M 715.433594 389.820312 L 715.609375 389.65625 L 716.414062 390.53125 L 716.238281 390.695312 Z M 715.546875 405.097656 L 715.722656 404.933594 L 716.527344 405.8125 L 716.351562 405.976562 Z M 716.644531 391.132812 L 716.820312 390.972656 L 717.625 391.847656 L 717.449219 392.007812 Z M 716.753906 406.414062 L 716.929688 406.253906 L 717.734375 407.132812 L 717.558594 407.296875 Z M 717.855469 392.449219 L 718.03125 392.289062 L 718.835938 393.164062 L 718.660156 393.324219 Z M 717.960938 407.734375 L 718.136719 407.574219 L 718.941406 408.453125 L 718.765625 408.617188 Z M 719.0625 393.765625 L 719.238281 393.601562 L 720.042969 394.480469 L 719.867188 394.640625 Z M 719.171875 409.054688 L 719.347656 408.894531 L 720.152344 409.773438 L 719.976562 409.9375 Z M 720.273438 395.085938 L 720.453125 394.921875 L 721.253906 395.796875 L 721.078125 395.960938 Z M 720.378906 410.371094 L 720.554688 410.210938 L 721.359375 411.089844 L 721.183594 411.25 Z M 721.484375 396.402344 L 721.664062 396.238281 L 722.46875 397.113281 L 722.289062 397.277344 Z M 721.585938 411.691406 L 721.761719 411.53125 L 722.566406 412.410156 L 722.390625 412.570312 Z M 722.691406 397.714844 L 722.871094 397.554688 L 723.675781 398.429688 L 723.496094 398.589844 Z M 722.792969 413.011719 L 722.96875 412.847656 L 723.773438 413.730469 L 723.597656 413.890625 Z M 723.902344 399.03125 L 724.082031 398.871094 L 724.886719 399.746094 L 724.707031 399.90625 Z M 724 414.332031 L 724.175781 414.167969 L 724.980469 415.050781 L 724.804688 415.210938 Z M 725.113281 400.347656 L 725.292969 400.183594 L 726.097656 401.0625 L 725.917969 401.222656 Z M 725.207031 415.648438 L 725.382812 415.484375 L 726.1875 416.363281 L 726.007812 416.527344 Z M 726.328125 401.667969 L 726.503906 401.503906 L 727.308594 402.382812 L 727.132812 402.542969 Z M 726.410156 416.964844 L 726.589844 416.804688 L 727.394531 417.683594 L 727.214844 417.847656 Z M 727.535156 402.984375 L 727.710938 402.820312 L 728.515625 403.695312 L 728.335938 403.859375 Z M 727.625 418.285156 L 727.800781 418.125 L 728.605469 419.003906 L 728.429688 419.167969 Z M 728.746094 404.296875 L 728.921875 404.136719 L 729.726562 405.011719 L 729.550781 405.175781 Z M 728.832031 419.601562 L 729.007812 419.441406 L 729.8125 420.320312 L 729.632812 420.480469 Z M 729.957031 405.613281 L 730.132812 405.453125 L 730.9375 406.328125 L 730.761719 406.488281 Z M 730.035156 420.921875 L 730.214844 420.761719 L 731.019531 421.640625 L 730.839844 421.800781 Z M 731.164062 406.933594 L 731.339844 406.773438 L 732.144531 407.648438 L 731.96875 407.808594 Z M 731.242188 422.242188 L 731.421875 422.082031 L 732.226562 422.960938 L 732.046875 423.121094 Z M 732.375 408.25 L 732.550781 408.085938 L 733.355469 408.964844 L 733.179688 409.125 Z M 732.449219 423.5625 L 732.628906 423.398438 L 733.433594 424.28125 L 733.253906 424.441406 Z M 733.585938 409.566406 L 733.761719 409.402344 L 734.566406 410.277344 L 734.390625 410.441406 Z M 733.65625 424.878906 L 733.835938 424.714844 L 734.640625 425.597656 L 734.460938 425.757812 Z M 734.792969 410.878906 L 734.96875 410.71875 L 735.773438 411.59375 L 735.597656 411.757812 Z M 734.863281 426.199219 L 735.039062 426.035156 L 735.84375 426.914062 L 735.667969 427.078125 Z M 736.003906 412.195312 L 736.179688 412.035156 L 736.984375 412.910156 L 736.808594 413.070312 Z M 736.074219 427.519531 L 736.253906 427.355469 L 737.058594 428.234375 L 736.878906 428.398438 Z M 737.214844 413.515625 L 737.390625 413.355469 L 738.195312 414.230469 L 738.019531 414.390625 Z M 737.28125 428.835938 L 737.460938 428.675781 L 738.261719 429.554688 L 738.085938 429.71875 Z M 738.421875 414.832031 L 738.597656 414.671875 L 739.402344 415.546875 L 739.226562 415.707031 Z M 738.488281 430.152344 L 738.664062 429.992188 L 739.46875 430.871094 L 739.292969 431.03125 Z M 739.632812 416.148438 L 739.808594 415.984375 L 740.613281 416.859375 L 740.4375 417.023438 Z M 739.695312 431.472656 L 739.871094 431.3125 L 740.675781 432.191406 L 740.5 432.351562 Z M 740.84375 417.464844 L 741.019531 417.300781 L 741.824219 418.175781 L 741.648438 418.339844 Z M 740.902344 432.792969 L 741.078125 432.632812 L 741.882812 433.511719 L 741.707031 433.671875 Z M 742.050781 418.777344 L 742.226562 418.617188 L 743.03125 419.492188 L 742.855469 419.652344 Z M 742.109375 434.113281 L 742.285156 433.949219 L 743.089844 434.832031 L 742.914062 434.992188 Z M 743.261719 420.097656 L 743.4375 419.9375 L 744.242188 420.8125 L 744.066406 420.972656 Z M 743.316406 435.429688 L 743.492188 435.265625 L 744.296875 436.148438 L 744.121094 436.308594 Z M 744.472656 421.414062 L 744.652344 421.253906 L 745.457031 422.128906 L 745.277344 422.289062 Z M 744.527344 436.75 L 744.703125 436.585938 L 745.507812 437.464844 L 745.332031 437.628906 Z M 745.679688 422.730469 L 745.859375 422.566406 L 746.664062 423.441406 L 746.484375 423.605469 Z M 745.734375 438.070312 L 745.910156 437.90625 L 746.714844 438.785156 L 746.539062 438.949219 Z M 746.890625 424.046875 L 747.070312 423.882812 L 747.875 424.757812 L 747.695312 424.921875 Z M 746.941406 439.382812 L 747.117188 439.222656 L 747.542969 439.683594 L 747.765625 439.6875 L 747.753906 440.273438 Z M 747.539062 439.089844 L 747.5625 437.902344 L 747.796875 437.90625 L 747.777344 439.097656 Z M 747.574219 437.304688 L 747.59375 436.113281 L 747.832031 436.117188 L 747.808594 437.308594 Z M 747.605469 435.515625 L 747.625 434.324219 L 747.863281 434.328125 L 747.839844 435.519531 Z M 747.636719 433.726562 L 747.660156 432.539062 L 747.894531 432.542969 L 747.875 433.730469 Z M 747.671875 431.941406 L 747.691406 430.75 L 747.929688 430.753906 L 747.90625 431.945312 Z M 747.703125 430.152344 L 747.726562 428.960938 L 747.960938 428.964844 L 747.941406 430.15625 Z M 747.734375 428.363281 L 747.757812 427.175781 L 747.996094 427.179688 L 747.972656 428.367188 Z M 747.769531 426.582031 L 747.789062 425.390625 L 748.027344 425.394531 L 748.003906 426.585938 Z M 747.769531 426.582031 " fill-opacity="1" fill-rule="nonzero"/></g></g></g><g transform="matrix(1, 0, 0, 1, 695, 375)"><g clip-path="url(#51c62e19c8)"><g fill="#eff6f6" fill-opacity="1"><g transform="translate(3.243966, 8.869919)"><g><path d="M 0.75 0.84375 L 6.921875 -4.671875 L 10.203125 -1.015625 L 9.53125 -0.421875 L 6.953125 -3.296875 L 5.015625 -1.5625 L 5.828125 -0.65625 C 6.378906 -0.0390625 6.734375 0.503906 6.890625 0.984375 C 7.046875 1.460938 7.046875 1.882812 6.890625 2.25 C 6.742188 2.613281 6.503906 2.953125 6.171875 3.265625 C 5.597656 3.765625 5 3.988281 4.375 3.9375 C 3.757812 3.882812 3.085938 3.453125 2.359375 2.640625 Z M 2.109375 1.03125 L 2.953125 1.984375 C 3.453125 2.535156 3.894531 2.835938 4.28125 2.890625 C 4.675781 2.941406 5.066406 2.800781 5.453125 2.46875 C 5.847656 2.101562 6.015625 1.722656 5.953125 1.328125 C 5.898438 0.941406 5.609375 0.457031 5.078125 -0.125 L 4.34375 -0.953125 Z M 2.109375 1.03125 "/></g></g></g><g fill="#eff6f6" fill-opacity="1"><g transform="translate(8.005341, 14.19409)"><g><path d="M 7 -1.703125 C 7.34375 -1.316406 7.554688 -0.898438 7.640625 -0.453125 C 7.722656 -0.00390625 7.675781 0.429688 7.5 0.859375 C 7.320312 1.296875 7.019531 1.703125 6.59375 2.078125 L 6.140625 2.5 L 3.296875 -0.671875 C 2.785156 -0.191406 2.503906 0.296875 2.453125 0.796875 C 2.410156 1.296875 2.597656 1.78125 3.015625 2.25 C 3.273438 2.53125 3.53125 2.757812 3.78125 2.9375 C 4.039062 3.125 4.335938 3.289062 4.671875 3.4375 L 4 4.03125 C 3.6875 3.894531 3.398438 3.726562 3.140625 3.53125 C 2.890625 3.34375 2.625 3.097656 2.34375 2.796875 C 1.945312 2.335938 1.6875 1.859375 1.5625 1.359375 C 1.4375 0.867188 1.460938 0.378906 1.640625 -0.109375 C 1.828125 -0.609375 2.179688 -1.09375 2.703125 -1.5625 C 3.210938 -2.019531 3.726562 -2.328125 4.25 -2.484375 C 4.769531 -2.640625 5.265625 -2.648438 5.734375 -2.515625 C 6.203125 -2.390625 6.625 -2.117188 7 -1.703125 Z M 6.34375 -1.15625 C 6.019531 -1.519531 5.648438 -1.703125 5.234375 -1.703125 C 4.816406 -1.703125 4.378906 -1.535156 3.921875 -1.203125 L 6.046875 1.15625 C 6.421875 0.800781 6.648438 0.421875 6.734375 0.015625 C 6.816406 -0.378906 6.6875 -0.769531 6.34375 -1.15625 Z M 6.34375 -1.15625 "/></g></g></g><g fill="#eff6f6" fill-opacity="1"><g transform="translate(12.371868, 19.07674)"><g><path d="M 6.484375 -2.28125 C 6.953125 -1.75 7.21875 -1.226562 7.28125 -0.71875 C 7.351562 -0.21875 7.191406 0.203125 6.796875 0.546875 C 6.523438 0.796875 6.234375 0.914062 5.921875 0.90625 C 5.609375 0.90625 5.296875 0.804688 4.984375 0.609375 L 4.96875 0.625 C 5.070312 0.863281 5.144531 1.101562 5.1875 1.34375 C 5.238281 1.582031 5.234375 1.816406 5.171875 2.046875 C 5.109375 2.285156 4.960938 2.507812 4.734375 2.71875 C 4.347656 3.0625 3.878906 3.1875 3.328125 3.09375 C 2.773438 3.007812 2.195312 2.625 1.59375 1.9375 C 1.289062 1.601562 1.039062 1.28125 0.84375 0.96875 C 0.65625 0.65625 0.535156 0.363281 0.484375 0.09375 L 1.15625 -0.5 C 1.226562 -0.226562 1.347656 0.0703125 1.515625 0.40625 C 1.679688 0.738281 1.910156 1.0625 2.203125 1.375 C 2.503906 1.71875 2.820312 1.957031 3.15625 2.09375 C 3.488281 2.226562 3.800781 2.164062 4.09375 1.90625 C 4.613281 1.4375 4.476562 0.757812 3.6875 -0.125 L 3.140625 -0.734375 L 3.75 -1.28125 L 4.203125 -0.78125 C 4.554688 -0.382812 4.894531 -0.117188 5.21875 0.015625 C 5.539062 0.160156 5.832031 0.117188 6.09375 -0.109375 C 6.3125 -0.296875 6.394531 -0.53125 6.34375 -0.8125 C 6.289062 -1.09375 6.109375 -1.40625 5.796875 -1.75 C 5.578125 -2 5.359375 -2.195312 5.140625 -2.34375 C 4.921875 -2.5 4.65625 -2.644531 4.34375 -2.78125 L 4.703125 -3.59375 C 5.359375 -3.3125 5.953125 -2.875 6.484375 -2.28125 Z M 6.484375 -2.28125 "/></g></g></g><g fill="#eff6f6" fill-opacity="1"><g transform="translate(16.16548, 23.318757)"><g><path d="M 8.8125 0.515625 L 4.171875 4.65625 L 3.484375 3.890625 L 7.484375 0.3125 L 5.34375 -2.078125 L 1.34375 1.5 L 0.65625 0.734375 L 5.296875 -3.40625 Z M 8.8125 0.515625 "/></g></g></g><g fill="#eff6f6" fill-opacity="1"><g transform="translate(20.996532, 28.720841)"><g><path d="M 3.8125 4.265625 L 3.125 3.5 L 7.125 -0.078125 L 5.90625 -1.453125 C 4.851562 -0.648438 3.972656 -0.0507812 3.265625 0.34375 C 2.554688 0.75 1.96875 0.957031 1.5 0.96875 C 1.03125 0.988281 0.644531 0.832031 0.34375 0.5 C 0.28125 0.425781 0.21875 0.347656 0.15625 0.265625 C 0.101562 0.191406 0.0664062 0.125 0.046875 0.0625 L 0.625 -0.453125 C 0.65625 -0.410156 0.679688 -0.363281 0.703125 -0.3125 C 0.722656 -0.269531 0.753906 -0.226562 0.796875 -0.1875 C 1.066406 0.113281 1.617188 0.0664062 2.453125 -0.328125 C 3.296875 -0.734375 4.460938 -1.515625 5.953125 -2.671875 L 8.453125 0.125 Z M 3.8125 4.265625 "/></g></g></g><g fill="#eff6f6" fill-opacity="1"><g transform="translate(25.471447, 33.724691)"><g><path d="M 6.953125 -1.71875 C 7.453125 -1.15625 7.695312 -0.625 7.6875 -0.125 C 7.6875 0.363281 7.414062 0.847656 6.875 1.328125 L 3.71875 4.15625 L 3.21875 3.59375 L 3.734375 2.875 L 3.703125 2.828125 C 3.273438 2.847656 2.898438 2.800781 2.578125 2.6875 C 2.265625 2.582031 1.9375 2.332031 1.59375 1.9375 C 1.21875 1.519531 1.015625 1.070312 0.984375 0.59375 C 0.953125 0.113281 1.175781 -0.335938 1.65625 -0.765625 C 2.113281 -1.171875 2.628906 -1.304688 3.203125 -1.171875 C 3.773438 -1.035156 4.410156 -0.597656 5.109375 0.140625 L 5.84375 0.90625 L 6.125 0.65625 C 6.507812 0.3125 6.703125 -0.0078125 6.703125 -0.3125 C 6.703125 -0.613281 6.5625 -0.914062 6.28125 -1.21875 C 6.0625 -1.46875 5.820312 -1.664062 5.5625 -1.8125 C 5.300781 -1.96875 5.035156 -2.101562 4.765625 -2.21875 L 5.140625 -2.953125 C 5.421875 -2.847656 5.722656 -2.691406 6.046875 -2.484375 C 6.378906 -2.285156 6.679688 -2.03125 6.953125 -1.71875 Z M 5.3125 1.375 L 4.65625 0.71875 C 4.125 0.164062 3.675781 -0.148438 3.3125 -0.234375 C 2.957031 -0.316406 2.632812 -0.222656 2.34375 0.046875 C 2.082031 0.273438 1.960938 0.523438 1.984375 0.796875 C 2.003906 1.066406 2.128906 1.320312 2.359375 1.5625 C 2.691406 1.945312 3.082031 2.175781 3.53125 2.25 C 3.988281 2.320312 4.445312 2.15625 4.90625 1.75 Z M 5.3125 1.375 "/></g></g></g><g fill="#eff6f6" fill-opacity="1"><g transform="translate(29.814745, 38.581368)"><g><path d="M 7.515625 0.359375 L 6.171875 -1.15625 L 2.171875 2.421875 L 1.484375 1.671875 L 5.484375 -1.90625 L 4.15625 -3.40625 L 4.796875 -3.96875 L 8.15625 -0.203125 Z M 7.515625 0.359375 "/></g></g></g><g fill="#eff6f6" fill-opacity="1"><g transform="translate(33.499969, 42.702185)"><g><path d="M 5.984375 -2.640625 L 4.0625 -0.921875 L 6.3125 1.59375 L 8.234375 -0.125 L 8.90625 0.640625 L 4.265625 4.78125 L 3.59375 4.015625 L 5.671875 2.15625 L 3.421875 -0.359375 L 1.34375 1.5 L 0.65625 0.734375 L 5.296875 -3.40625 Z M 5.984375 -2.640625 "/></g></g></g><g fill="#eff6f6" fill-opacity="1"><g transform="translate(38.431665, 48.216808)"><g><path d="M 6.59375 2.6875 C 5.820312 3.375 5.050781 3.707031 4.28125 3.6875 C 3.519531 3.675781 2.84375 3.34375 2.25 2.6875 C 1.882812 2.269531 1.648438 1.816406 1.546875 1.328125 C 1.453125 0.847656 1.5 0.359375 1.6875 -0.140625 C 1.882812 -0.648438 2.238281 -1.132812 2.75 -1.59375 C 3.519531 -2.28125 4.285156 -2.617188 5.046875 -2.609375 C 5.804688 -2.609375 6.488281 -2.273438 7.09375 -1.609375 C 7.457031 -1.191406 7.6875 -0.734375 7.78125 -0.234375 C 7.882812 0.265625 7.835938 0.757812 7.640625 1.25 C 7.453125 1.75 7.101562 2.226562 6.59375 2.6875 Z M 3.453125 -0.8125 C 2.898438 -0.320312 2.5625 0.171875 2.4375 0.671875 C 2.3125 1.171875 2.460938 1.660156 2.890625 2.140625 C 3.304688 2.597656 3.769531 2.796875 4.28125 2.734375 C 4.800781 2.671875 5.335938 2.394531 5.890625 1.90625 C 6.429688 1.414062 6.757812 0.914062 6.875 0.40625 C 7 -0.09375 6.847656 -0.578125 6.421875 -1.046875 C 6.003906 -1.523438 5.539062 -1.726562 5.03125 -1.65625 C 4.519531 -1.582031 3.992188 -1.300781 3.453125 -0.8125 Z M 3.453125 -0.8125 "/></g></g></g></g></g></svg>